<?xml version="1.0" encoding="utf-8"?>
<!-- Generator: Adobe Illustrator 24.3.0, SVG Export Plug-In . SVG Version: 6.00 Build 0)  -->
<svg version="1.1" id="Layer_1" xmlns="http://www.w3.org/2000/svg" xmlns:xlink="http://www.w3.org/1999/xlink" x="0px" y="0px"
	 viewBox="0 0 1417.3 708.7" style="enable-background:new 0 0 1417.3 708.7;" xml:space="preserve">
<style type="text/css">
	.st0{fill:#D8992B;}
	.st1{fill:#EDE548;}
	.st2{fill:#E0D438;}
	.st3{fill:#331B12;}
	.st4{fill:#FFFFFF;}
	.st5{fill:#E8E3AF;}
</style>
<path class="st0" d="M648.9,517.5L676,639.2c0,0-6.6,26.6-18.9-8.9c-12.3-35.5-31.5-111.4-31.5-111.4L648.9,517.5z"/>
<path class="st0" d="M682.9,517.6l61.1,108.7c0,0,1.4,27.4-20.7-3.1c-22-30.5-62.3-97.6-62.3-97.6L682.9,517.6z"/>
<path class="st0" d="M940.3,211.1c0,0,32.8,4.9,25.2,14.7c-7.5,9.8-50.7,0-50.7,0L940.3,211.1z"/>
<path class="st0" d="M913.4,198.9c0,0,27.4-14.7,46.5-8c19.1,6.7-30.5,31.2-30.5,31.2L913.4,198.9z"/>
<ellipse class="st1" cx="772.4" cy="248.8" rx="167.9" ry="154.5"/>
<ellipse transform="matrix(0.2496 -0.9683 0.9683 0.2496 429.1492 930.0641)" class="st2" cx="814.7" cy="188.1" rx="26" ry="39.7"/>
<path class="st1" d="M852.9,427.2c0,69.7-60.9,127.4-140.1,137c-7.7,0.9-15.5,1.4-23.4,1.4c-90.3,0-163.5-62-163.5-138.5
	s73.2-138.5,163.5-138.5c76.3,0,140.4,44.3,158.5,104.2C851.2,403.9,852.9,415.4,852.9,427.2z"/>
<ellipse transform="matrix(0.2496 -0.9683 0.9683 0.2496 437.5093 949.4623)" class="st3" cx="831.4" cy="192.4" rx="16.7" ry="25.5"/>
<ellipse transform="matrix(0.2496 -0.9683 0.9683 0.2496 435.2933 937.1073)" class="st4" cx="822.3" cy="187.7" rx="6.1" ry="9.3"/>
<path class="st1" d="M719,127.1c0,0-93.7-48.7-61.4-64.1s57.6,50.9,57.6,50.9s-20.8-72.4,2.7-68.6S734.7,135.8,719,127.1z"/>
<path class="st5" d="M852.9,427.2c0,69.7-60.9,127.4-140.1,137c49.3-124.8,114.6-168.1,133.3-176.6
	C849.4,398.6,852.9,415.4,852.9,427.2z"/>
<path class="st1" d="M577.5,473.6c0,0-79.5-32.7-96.3-6.7c-16.8,26,15.7,35.8,15.7,35.8s-52.9,14.7-29.1,29.4
	c23.8,14.6,117.3-25.6,123.2-45.1C596.9,467.5,577.5,473.6,577.5,473.6z"/>
<path class="st0" d="M700,671.9c3.1,0.1,6-3,4.6-5.7c-3.9-7.9,3.1-4.4,9.7-3.7c2.5,0.3,4.4-2.4,3.2-4.7
	c-4.7-8.8-21.3-18.1-41.5-18.5l-13.4,3.8c0,0-18.3,21.6,9.7,28.9c3,0.8,8.3,0.7,9.1-2.3c0.5-1.9,0-3.2,1.8-4.1
	c3.6-1.6,6.1-0.1,7.8,2.6c1,1.5,2.4,2.7,4.1,3.1C696.4,671.5,697.9,671.8,700,671.9z"/>
<path class="st0" d="M762.5,654.7c3.1,0.1,6-3,4.6-5.7c-3.9-7.9,2.6-3.4,9.3-2.6c2.5,0.3,4.9-3.5,3.7-5.7
	c-4.7-8.8-21.3-18.1-41.5-18.5l-13.4,3.8c0,0-18.3,21.6,9.7,28.9c3,0.8,7.1-0.2,7.9-3.2c0.5-1.9,1.2-2.4,3-3.2
	c3.6-1.6,4.1-0.8,5.8,2c1,1.5,4.4,3.3,6.1,3.8C758.9,654.3,760.4,654.6,762.5,654.7z"/>
<path class="st2" d="M697.3,364.2c-27.8,0.1-77.5,5.6-87,43c-1.4,5.7,3,11.3,8.8,11.1c2.2-0.1,4.5-0.5,6.9-1.5c0,0-8,11.7-14.4,24.3
	c0.1,0.3,0.1,0.6,0.2,0.9c3.4,12.6,16.2,20.2,28.8,16.8c24.4-6.6,62.2-24.7,73-74.6C715.8,373.9,707.8,364.2,697.3,364.2z"/>
</svg>
