<?xml version="1.0" encoding="utf-8"?>
<!-- Generator: Adobe Illustrator 24.3.0, SVG Export Plug-In . SVG Version: 6.00 Build 0)  -->
<svg version="1.1" id="Layer_1" xmlns="http://www.w3.org/2000/svg" xmlns:xlink="http://www.w3.org/1999/xlink" x="0px" y="0px"
	 viewBox="0 0 1417.3 708.7" style="enable-background:new 0 0 1417.3 708.7;" xml:space="preserve">
<style type="text/css">
	.st0{fill:#4993EA;}
	.st1{fill:#337AC1;}
	.st2{fill:#EBF264;}
	.st3{fill:#70B5F9;}
</style>
<path class="st0" d="M988,400.7c0,88.9-35.5,168.3-91,220.5c-42.7,40.1-97.2,64.2-156.7,64.2c-58.6,0-112.4-23.4-154.7-62.4
	c-56.6-52.2-92.9-132.4-92.9-222.3c0-157.2,110.9-284.7,247.7-284.7S988,243.4,988,400.7z"/>
<path class="st0" d="M706.5,139.3c0,0-141.8-55-82.6-78.3c59.3-23.3,69.9,39.2,69.9,39.2s0-58.2,31.8-54S706.5,139.3,706.5,139.3z"
	/>
<path class="st0" d="M522.3,497c0,0-266.7-74.1-215.9-120.7s114.3,24.3,114.3,24.3s-16.9-39.1,16.9-40.2
	c33.9-1.1,84.7,121.7,84.7,121.7"/>
<path class="st0" d="M971.8,497c0,0,190.9-62.3,188.5-92.4c-2.4-30.1-64.4,0-64.4,0s-2.4-55.7-45.3-27.8
	c-43,27.8-114.6,93.5-114.6,93.5"/>
<g>
	<path class="st1" d="M808,378.1l0.2-2.3c0.1-0.7,0.2-1.4,0.2-2.1c0.2-1.4,0.4-2.7,0.7-4.1c0.6-2.7,1.3-5.3,2.2-7.9
		c1.8-5.2,4.3-10.3,7.6-15.2c3.3-4.9,7.5-9.6,12.9-13.6c5.4-4,12-7.1,19.2-8.3c7.2-1.3,14.5-0.7,20.9,1.2c3.1,1,6.2,2.1,8.9,3.6
		l2.1,1.1c0.3,0.2,0.7,0.4,1,0.5l0.9,0.6l3.7,2.4l0.9,0.6c0.3,0.2,0.6,0.4,0.8,0.7l1.7,1.4c1.1,0.9,2.2,1.8,3.2,2.7
		c2,1.9,3.9,3.9,5.7,5.9c1.7,2.1,3.4,4.2,4.9,6.4c1.4,2.2,2.8,4.5,4,6.8c2.4,4.6,0.6,10.2-4,12.6c-2.6,1.4-5.6,1.4-8.2,0.2l-0.8-0.4
		c-2.2-1-4.2-2.1-6.2-3.2c-1-0.6-2-1-3-1.5c-1-0.5-1.9-1-2.9-1.6c-0.9-0.6-1.9-0.9-2.8-1.4c-0.9-0.4-1.9-0.9-2.8-1.4
		c-0.9-0.4-1.8-0.8-2.7-1.2l-1.3-0.6l-0.7-0.3l-0.7-0.2c-1.7-0.6-3.5-1.3-5.1-1.7c-1.6-0.6-3.1-0.7-4.6-1.1c-2.9-0.4-5.3-0.4-7.5,0
		c-2.2,0.4-4.5,1.2-7,2.6c-2.5,1.4-5.2,3.4-8,5.9c-2.8,2.5-5.5,5.4-8.3,8.6c-1.4,1.6-2.7,3.2-4.2,4.9l-2.1,2.5l-1,1.3
		c-0.3,0.4-0.7,0.9-1,1.1l-3.2,2.3c-3.9,2.9-9.4,2-12.3-1.9C808.3,382.2,807.8,380.1,808,378.1z"/>
</g>
<g>
	<path class="st1" d="M602,372.6l0.8-2.1c0.3-0.7,0.6-1.3,0.8-1.9c0.6-1.2,1.2-2.5,1.9-3.7c1.3-2.4,2.8-4.7,4.4-6.9
		c3.2-4.5,7.1-8.6,11.7-12.3c4.6-3.7,10-7,16.3-9.2c6.3-2.2,13.6-3.2,20.8-2.3c7.2,0.9,14,3.6,19.6,7.2c2.7,1.9,5.3,3.8,7.5,6
		l1.7,1.6c0.3,0.3,0.6,0.5,0.8,0.8l0.7,0.9l2.8,3.4l0.7,0.9c0.2,0.3,0.4,0.6,0.6,0.9l1.2,1.8c0.8,1.2,1.6,2.4,2.3,3.6
		c1.3,2.4,2.6,4.9,3.7,7.3c1,2.5,2,5,2.8,7.5c0.7,2.5,1.4,5.1,1.9,7.7c0.9,5.1-2.4,10-7.5,10.9c-2.9,0.5-5.8-0.3-7.9-2.2l-0.6-0.6
		c-1.8-1.6-3.4-3.2-5-4.9c-0.8-0.8-1.6-1.6-2.4-2.4c-0.8-0.8-1.5-1.6-2.3-2.3c-0.7-0.8-1.5-1.5-2.3-2.2c-0.8-0.7-1.5-1.4-2.2-2.2
		c-0.8-0.7-1.5-1.3-2.3-1.9l-1.1-1l-0.5-0.5l-0.6-0.4c-1.5-1.1-2.9-2.3-4.3-3.1c-1.4-1-2.8-1.6-4.1-2.4c-2.6-1.2-4.9-1.9-7.2-2.2
		c-2.3-0.3-4.6-0.2-7.5,0.4c-2.8,0.6-6,1.7-9.3,3.3c-3.4,1.5-6.8,3.5-10.4,5.8c-1.8,1.1-3.6,2.3-5.4,3.5l-2.7,1.8l-1.4,0.9
		c-0.4,0.3-1,0.6-1.3,0.8l-3.7,1.3c-4.6,1.6-9.6-0.8-11.2-5.4C601.2,376.6,601.3,374.5,602,372.6z"/>
</g>
<path class="st2" d="M740.6,489.5c0,0,16.8,33.6,43.3,31c16.6-1.6,16.8-27,14.5-45.7c-1.4-12.3-13-20.8-25.2-18.8
	C756.9,458.8,737.6,466.9,740.6,489.5z"/>
<path class="st3" d="M897,621.2c-42.7,40.1-97.2,64.2-156.7,64.2c-58.6,0-112.4-23.4-154.7-62.4C641.9,591,762.5,543.8,897,621.2z"
	/>
</svg>
