<?xml version="1.0" encoding="utf-8"?>
<!-- Generator: Adobe Illustrator 24.3.0, SVG Export Plug-In . SVG Version: 6.00 Build 0)  -->
<svg version="1.1" id="Layer_1" xmlns="http://www.w3.org/2000/svg" xmlns:xlink="http://www.w3.org/1999/xlink" x="0px" y="0px"
	 viewBox="0 0 1417.3 708.7" style="enable-background:new 0 0 1417.3 708.7;" xml:space="preserve">
<style type="text/css">
	.st0{fill:#3A0A2A;}
	.st1{fill:#F9A5D5;}
	.st2{fill:#FFC0E7;}
	.st3{fill:#1E0617;}
	.st4{fill:#FFFFFF;}
</style>
<path class="st0" d="M858.3,597.1c0,0,67.4,38.3,43.3,51s-35.2-5.6-35.2-5.6s-11.4,27-39.9,8.3c0,0-29.6,14-30.7-1.3
	C794.7,634.2,812.2,592.9,858.3,597.1z"/>
<path class="st0" d="M596.5,596.6c0,0-67.4,38.3-43.3,51s35.2-5.6,35.2-5.6s11.3,27.8,38.3,4.6c0,0,17.2,24,32.3,2.4
	C667.8,636.4,642.6,592.4,596.5,596.6z"/>
<path class="st1" d="M716.8,206.4c0,0-93.2-174.3-40.5-154c52.7,20.3,40.5,56.8,40.5,56.8s48.6-73,66.9-36.5
	c18.2,36.5-22.3,133.8-22.3,133.8"/>
<path class="st2" d="M720.3,181.1c0,0-48.7-91-21.2-80.4c27.5,10.6,21.2,29.6,21.2,29.6s25.4-38.1,34.9-19.1
	c9.5,19.1-11.6,69.9-11.6,69.9"/>
<ellipse class="st1" cx="737.5" cy="399.5" rx="262" ry="247"/>
<path class="st1" d="M955,430.2c0,0,164,5.9,146.2,46.9c-17.8,41-72.4,23.2-72.4,23.2s61.7,51.4,0,49.9
	C967.1,548.8,937.4,429.2,955,430.2z"/>
<path class="st1" d="M534.7,393.1c0,0-209.8,37.1-162.7,86.3s67.8,2.8,67.8,2.8s-48.1,68.3-8.9,71.8s115.7-118,115.7-118
	L534.7,393.1z"/>
<ellipse class="st2" cx="861" cy="427.2" rx="49.4" ry="27.7"/>
<ellipse class="st2" cx="631.2" cy="427.2" rx="49.4" ry="27.7"/>
<ellipse class="st3" cx="631.2" cy="399.5" rx="27.7" ry="49.4"/>
<ellipse class="st3" cx="861" cy="399.5" rx="27.7" ry="49.4"/>
<path class="st3" d="M704,503.4c11.8,10.8,41.9,32.2,70.2,1.5c3.1-3.3,5.9-21.1,1.7-22.8c-12.9-5.2-43.4-15-70-2.1
	C702.4,481.7,701.2,500.8,704,503.4z"/>
<path class="st0" d="M705.2,489.5c11.8,10.8,41.9,32.2,70.2,1.5c3.1-3.3,1.8-8.7-2.4-10.4c-12.9-5.2-39.8-12.8-66.4,0.1
	C703.1,482.4,702.4,486.9,705.2,489.5z"/>
<ellipse class="st4" cx="639.4" cy="385" rx="8.2" ry="14.6"/>
<ellipse class="st4" cx="869.2" cy="385" rx="8.2" ry="14.6"/>
<g>
	<path class="st2" d="M800.7,315.3l0.6-1.9c0.2-0.6,0.4-1.1,0.6-1.7c0.4-1.1,0.9-2.1,1.4-3.2c1-2.1,2.2-4,3.5-5.9
		c2.6-3.8,5.7-7.2,9.4-10.2c7.2-6,16.5-10.3,26.2-11.6c1.2-0.2,2.4-0.3,3.6-0.4c1.2-0.1,2.4-0.2,3.6-0.1c1.2,0,2.4,0,3.6,0.1
		l3.6,0.3c4.7,0.6,9.3,1.7,13.5,3.4c4.3,1.6,8.2,3.8,11.9,6.1c1.8,1.2,3.5,2.6,5.2,3.9c1.6,1.4,3.2,2.9,4.7,4.5
		c2.6,2.8,2.4,7.1-0.3,9.7c-1.6,1.5-3.7,2.1-5.7,1.8l-0.6-0.1c-1.9-0.3-3.8-0.7-5.6-1.2c-1.8-0.3-3.6-0.7-5.3-1.1
		c-3.5-0.6-6.8-1.3-10.1-1.6c-6.5-0.8-12.6-0.8-18.3,0.2c-5.7,0.9-11.2,2.8-16.9,5.4c-2.8,1.3-5.7,2.9-8.6,4.7
		c-1.5,0.9-2.9,1.8-4.4,2.8l-2.2,1.5l-1.1,0.7c-0.3,0.2-0.8,0.5-1,0.6l-4.7,0.8c-3.2,0.6-6.3-1.6-6.8-4.8
		C800.3,317.1,800.4,316.2,800.7,315.3z"/>
</g>
<g>
	<path class="st2" d="M605.4,302.9l1.1-1.6c0.3-0.5,0.7-1,1.1-1.4c0.7-0.9,1.5-1.8,2.3-2.6c1.6-1.7,3.3-3.2,5.1-4.6
		c3.6-2.8,7.6-5.2,12-7c8.7-3.6,18.8-4.9,28.4-3.3c1.2,0.2,2.4,0.4,3.6,0.7c1.2,0.3,2.4,0.5,3.5,0.9c1.1,0.4,2.3,0.7,3.4,1.1
		l3.3,1.4c4.3,2,8.4,4.4,11.9,7.3c3.6,2.8,6.7,6,9.5,9.4c1.4,1.7,2.6,3.5,3.8,5.3c1.1,1.9,2.2,3.7,3.1,5.7c1.6,3.4,0.2,7.5-3.2,9.2
		c-2,0.9-4.2,0.9-6,0l-0.6-0.3c-1.8-0.9-3.4-1.8-5-2.8c-1.7-0.8-3.2-1.8-4.8-2.6c-3.1-1.6-6.1-3.3-9.2-4.5c-6-2.7-11.8-4.4-17.5-5.3
		c-5.7-0.8-11.5-0.7-17.7,0.2c-3.1,0.5-6.3,1.1-9.6,1.9c-1.6,0.4-3.3,0.9-5,1.3l-2.5,0.7l-1.3,0.4c-0.4,0.1-0.9,0.3-1.1,0.2
		l-4.7-0.6c-3.2-0.4-5.5-3.4-5.1-6.6C604.6,304.5,604.9,303.6,605.4,302.9z"/>
</g>
</svg>
