<?xml version="1.0" encoding="utf-8"?>
<!-- Generator: Adobe Illustrator 24.3.0, SVG Export Plug-In . SVG Version: 6.00 Build 0)  -->
<svg version="1.1" id="Layer_1" xmlns="http://www.w3.org/2000/svg" xmlns:xlink="http://www.w3.org/1999/xlink" x="0px" y="0px"
	 viewBox="0 0 1417.3 708.7" style="enable-background:new 0 0 1417.3 708.7;" xml:space="preserve">
<style type="text/css">
	.st0{fill:#E04B4B;}
	.st1{fill:#EF5050;}
	.st2{fill:#330909;}
	.st3{fill:#FFFFFF;}
	.st4{fill:#F9D919;}
	.st5{fill:#8CBDF9;}
</style>
<path class="st0" d="M475.5,429.5c0,0-79.2,100.8-36,108.7s36-15.8,36-15.8s-23.1,38.6,0.5,44c23.6,5.4,30.8-127.1,30.8-127.1
	L475.5,429.5z"/>
<path class="st1" d="M1027.5,392.1c0,119.3-119.5,217-270.5,224.6c-6.3,0.3-12.6,0.5-19,0.5c-155.5,0-282.3-95.3-289.2-214.8
	c-0.2-3.4-0.3-6.8-0.3-10.3c0-48.1,19.4-92.7,52.5-129.3c12.5-13.8,26.9-26.5,43-37.7c51.3-36.1,119.4-58,194-58
	c48.6,0,94.5,9.3,134.7,25.8c20.8,8.5,40.2,19,57.7,31.1C989.9,265.1,1027.5,325.2,1027.5,392.1z"/>
<path class="st0" d="M757,616.7c-6.3,0.3-12.6,0.5-19,0.5c-155.5,0-282.3-95.3-289.2-214.8C482.8,439.8,608.5,569.3,757,616.7z"/>
<path class="st1" d="M696.7,195.3c0,0-128.3-56.5-75.3-109.5c53-53,58.3,44.1,58.3,44.1s28.2-51.2,55.6-38.8
	c27.4,12.4-6.2,104.2-6.2,104.2H696.7z"/>
<path class="st1" d="M993.6,412.9c0,0,82.1,130.2,37.6,138.2c-44.6,8-40.2-13.7-40.2-13.7s3.2,31.6-23,28.9
	C941.7,563.6,948.2,433.4,993.6,412.9z"/>
<ellipse class="st2" cx="588.8" cy="370.6" rx="30.5" ry="42.4"/>
<ellipse class="st2" cx="726.5" cy="370.6" rx="30.5" ry="42.4"/>
<ellipse class="st3" cx="738" cy="354.6" rx="11.5" ry="16"/>
<ellipse class="st3" cx="597.1" cy="354.6" rx="11.5" ry="16"/>
<path class="st4" d="M645.3,428c-10.8-0.1-20.8,5.6-26.3,14.9c-5.1,8.5-8.6,18,0.3,19c16.3,1.8,36.3,8.3,58.1-16.2
	C677.3,445.7,673.9,428.3,645.3,428z"/>
<path class="st4" d="M930.3,223.9C868.8,258.2,688,341.8,501,262.8c12.5-13.8,26.9-26.5,43-37.7c40.8,23.5,151.3,64.6,328.8-32.3
	C893.5,201.4,912.9,211.8,930.3,223.9z"/>
<ellipse class="st4" cx="837.7" cy="594.2" rx="43.3" ry="24.7"/>
<ellipse class="st4" cx="608.6" cy="591.2" rx="43.3" ry="24.7"/>
<path class="st5" d="M857.9,301.6c-3.5-3.3-9.1-2.4-11.3,1.9c-4.5,9-10.6,23.9-8.9,35.8c2.6,18.3,25.6,22.1,34.4,0
	C878.1,324.4,866.2,309.6,857.9,301.6z"/>
</svg>
