<?xml version="1.0" encoding="utf-8"?>
<!-- Generator: Adobe Illustrator 24.3.0, SVG Export Plug-In . SVG Version: 6.00 Build 0)  -->
<svg version="1.1" id="Layer_1" xmlns="http://www.w3.org/2000/svg" xmlns:xlink="http://www.w3.org/1999/xlink" x="0px" y="0px"
	 viewBox="0 0 1417.3 708.7" style="enable-background:new 0 0 1417.3 708.7;" xml:space="preserve">
<style type="text/css">
	.st0{fill:#DE992D;}
	.st1{fill:#F9D919;}
</style>
<path class="st0" d="M864.1,288.6c0,0-37.2,17.9-44,30.9c-6.8,13.1,36.1,35.8,74.5,0C932.9,283.8,864.1,288.6,864.1,288.6z"/>
<path class="st1" d="M266.2,584.2c75.3,8.3,74.9-118.6,74.9-118.6s27.8,95.3,81.3,109.3c53.5,14,55.6-139.5-27.8-216.2
	c0,0,89.9-132.5,42.8-158.1s-91.2,27.9-100.2,62.8c0,0-5.6-108.6-47.4-118.6c-66.5-15.9-73.5,50.5-72.9,83.6
	C216.8,228.3,203.4,577.3,266.2,584.2z"/>
<path class="st1" d="M580.6,156.6c-30.4,12.4-49.9,41.2-50.2,72.8c-0.9,89,0.6,322.5,41.9,335.7c47,15,96.1-82.2,75.2-164
	c-2.7-10.7,4.9-21.4,16.4-22.6c44.6-4.7,137.1-22,137.1-85.5C801.1,222.7,675.6,117.8,580.6,156.6z M628.3,279.1
	c-21.6-8.2-17.7-34.3-10.8-54.3c7.5-21.9,35-30.7,54.7-17.3c22.4,15.3,44.5,41.5,44.6,50.7C717.1,295.5,664.8,293,628.3,279.1z"/>
<path class="st1" d="M1143.3,362.6c0,0,35.5-1.2,23.7-23.8c-7.3-13.9-32.5-15-50.9-13.7c-20-53.7-40.7-104.1-53.8-135.4
	c-15.2-36.2-55.7-55-93-42.7c-50.1,16.5-119.6,60.7-126.5,114.3c-7.3,57.1,42.7,95.4,80.6,111.6c11.7,5,17.9,17.7,14.7,30
	c-13.7,52-40.5,178.8,24,180.8c49.9,1.6,71-38,79.9-68.8c1.3-4.4,7-5.5,9.8-1.9c22.5,29.2,80.1,61.1,113.3,45.3
	c19.3-9.1,4.5-75-20.2-150.8c16.4-1.3,30.4-3.9,35.4-8.9C1195.8,383.5,1143.3,362.6,1143.3,362.6z M1006.4,297.1
	c-1.4,9.3-7.5,17.5-16.4,20.8c-23.1,8.6-47-20-57.1-34.2c-4.1-5.7-6-12.7-5.1-19.7c1.6-13.4,9.9-33.5,44.3-36.7
	C1013.5,223.4,1009.8,275.2,1006.4,297.1z"/>
</svg>
